<?xml version="1.0" encoding="UTF-8" standalone="no"?>
<svg
   xmlns:dc="http://purl.org/dc/elements/1.1/"
   xmlns:cc="http://creativecommons.org/ns#"
   xmlns:rdf="http://www.w3.org/1999/02/22-rdf-syntax-ns#"
   xmlns:svg="http://www.w3.org/2000/svg"
   xmlns="http://www.w3.org/2000/svg"
   xmlns:sodipodi="http://sodipodi.sourceforge.net/DTD/sodipodi-0.dtd"
   xmlns:inkscape="http://www.inkscape.org/namespaces/inkscape"
   id="Ebene_1"
   data-name="Ebene 1"
   viewBox="0 0 75 75"
   version="1.1"
   inkscape:version="0.91 r13725"
   sodipodi:docname="meeteora-bubble.svg"
   width="75"
   height="75">
  <metadata
     id="metadata3414">
    <rdf:RDF>
      <cc:Work
         rdf:about="">
        <dc:format>image/svg+xml</dc:format>
        <dc:type
           rdf:resource="http://purl.org/dc/dcmitype/StillImage" />
        <dc:title>meeteora_final</dc:title>
      </cc:Work>
    </rdf:RDF>
  </metadata>
  <sodipodi:namedview
     pagecolor="#ffffff"
     bordercolor="#666666"
     borderopacity="1"
     objecttolerance="10"
     gridtolerance="10"
     guidetolerance="10"
     inkscape:pageopacity="0"
     inkscape:pageshadow="2"
     inkscape:window-width="1600"
     inkscape:window-height="1004"
     id="namedview3412"
     showgrid="false"
     inkscape:zoom="12.181672"
     inkscape:cx="35.983687"
     inkscape:cy="32.903343"
     inkscape:window-x="0"
     inkscape:window-y="0"
     inkscape:window-maximized="0"
     inkscape:current-layer="Ebene_1" />
  <defs
     id="defs3404">
    <style
       id="style3406">.cls-1{fill:#00d6d0;}.cls-2{fill:#ff45e9;}.cls-3{fill:#fff;}</style>
  </defs>
  <title
     id="title3408">meeteora_final</title>
  <path
     class="cls-2"
     d="m 66.550279,12.44611 -22.47,14.64 a 0.07,0.07 0 0 1 -0.08,0 27.71,27.71 0 0 0 -3.35,-2.22 0.06,0.06 0 0 1 0,-0.11 L 56.980272,14.0961 a 2.54,2.54 0 0 0 -2.77,-4.25 l -19.39,12.63 -0.05,0 a 26.92,26.92 0 0 0 -5.52,-0.94 l 11.7,-7.62 a 2.54,2.54 0 1 0 -2.77,-4.25 l -24.68,16 c -12.3100003,8 -15.4600003,24.65 -7.4400003,37 8.0200003,12.35 24.5100003,16.15 36.8200003,8.13 12.31,-8.02 15.37,-24.79 7.44,-37 a 26.52,26.52 0 0 0 -2.4,-3.1 0.07,0.07 0 0 1 0,-0.1 l 21.36,-13.92 a 2.54,2.54 0 0 0 -2.77,-4.25 z"
     id="path3410"
     inkscape:connector-curvature="0"
     style="fill:#ff45e9" />
</svg>
